<svg xmlns="http://www.w3.org/2000/svg" width="25" height="25" viewBox="0 0 25 25">
    <path fill="#A50D0D" fill-rule="evenodd" d="M13.855 18.948h3.29V9.487h-3.29v9.46zm-6.12 0h3.29V9.487h-3.29v9.461zm12.239-9.473v9.486h1.407c.385 0 .49.104.491.485.001.687.002 1.375 0 2.062 0 .368-.126.492-.494.492H3.497c-.368 0-.491-.124-.492-.494-.002-.687-.002-1.375 0-2.062 0-.368.114-.482.474-.483h1.418V9.476c-.417 0-.829-.013-1.24.003-.544.02-.674-.096-.655-.655.012-.366.008-.734 0-1.101-.004-.225.087-.379.28-.49 2.975-1.719 5.949-3.438 8.92-5.161.172-.1.317-.094.485.005 2.654 1.54 5.31 3.078 7.965 4.616.323.187.645.378.974.555.167.09.244.222.245.402.003.474.006.948 0 1.422-.005.275-.137.4-.414.402-.486.004-.973.001-1.483.001z"/>
</svg>
