<svg xmlns="http://www.w3.org/2000/svg" width="31" height="43" viewBox="0 0 31 43">
    <g fill="none" fill-rule="evenodd">
        <ellipse cx="16" cy="41" fill="#747C84" fill-opacity=".5" rx="6" ry="2"/>
        <path fill="#A50D0D" stroke="#FFF" d="M16 .5C11.992.5 8.367 2.121 5.744 4.744 3.12 7.367 1.5 10.992 1.5 15c0 10.623 14.129 26.335 14.129 26.335s.129.143.37.403c.243-.26.372-.403.372-.403S30.5 25.623 30.5 15c0-4.008-1.621-7.633-4.244-10.256C23.633 2.12 20.008.5 16 .5z"/>
        <path fill="#FFF" d="M17.052 19.71h2.44v-7.095h-2.44v7.096zm-4.54.001h2.44v-7.096h-2.44v7.096zm9.078-7.104v7.114h1.044c.285 0 .364.078.364.363.001.516.002 1.032 0 1.547 0 .276-.093.369-.366.369H9.369c-.273 0-.365-.093-.366-.37v-1.547c0-.276.085-.362.353-.362h1.05v-7.114c-.308 0-.614-.01-.919.002-.404.016-.5-.072-.486-.49.01-.276.006-.551 0-.827-.003-.168.065-.284.208-.367 2.207-1.29 4.413-2.58 6.617-3.871.127-.075.234-.07.36.003 1.968 1.156 3.938 2.31 5.907 3.463.24.14.479.283.722.416.125.067.182.166.182.301.003.356.005.711 0 1.067-.003.207-.101.3-.307.302-.36.003-.721 0-1.1 0z"/>
    </g>
</svg>
