<svg xmlns="http://www.w3.org/2000/svg" width="31" height="43" viewBox="0 0 31 43">
    <g fill="none" fill-rule="evenodd">
        <ellipse cx="16" cy="41" fill="#747C84" fill-opacity=".5" rx="6" ry="2"/>
        <path fill="#A50D0D" stroke="#FFF" d="M16 .5C11.992.5 8.367 2.121 5.744 4.744 3.12 7.367 1.5 10.992 1.5 15c0 10.623 14.129 26.335 14.129 26.335s.129.143.37.403c.243-.26.372-.403.372-.403S30.5 25.623 30.5 15c0-4.008-1.621-7.633-4.244-10.256C23.633 2.12 20.008.5 16 .5z"/>
        <path fill="#FFF" fill-rule="nonzero" d="M10.91 15.54v2.964l5.09 2.83 5.09-2.83V15.54L16 18.37l-5.09-2.83zM16 8l-8 4.444 8 4.445 6.545-3.637v5.118H24v-5.926L16 8z"/>
    </g>
</svg>
