<svg xmlns="http://www.w3.org/2000/svg" width="31" height="43" viewBox="0 0 31 43">
    <g fill="none" fill-rule="evenodd">
        <ellipse cx="16" cy="41" fill="#747C84" fill-opacity=".5" rx="6" ry="2"/>
        <path fill="#171B50" stroke="#FFF" d="M16 .5C11.992.5 8.367 2.121 5.744 4.744 3.12 7.367 1.5 10.992 1.5 15c0 10.623 14.129 26.335 14.129 26.335s.129.143.37.403c.243-.26.372-.403.372-.403S30.5 25.623 30.5 15c0-4.008-1.621-7.633-4.244-10.256C23.633 2.12 20.008.5 16 .5z"/>
        <g fill="#FFF">
            <path d="M3.898 6.763c0 .36-.005.72.001 1.078.004.21.153.369.33.373.187.005.354-.154.352-.372-.003-.473-.05-.946-.027-1.417.023-.482.06-.973.177-1.44.181-.722.832-1.093 1.48-.912.411.116.622.418.615.844-.02 1.255-.031 2.509-.049 3.763-.012.887-.116 1.756-.476 2.58-.423.968-.94 1.878-1.584 2.715-.408.53-.82 1.058-1.236 1.583-.207.263-.522.303-.782.089-.837-.691-1.67-1.387-2.5-2.088-.246-.209-.262-.519-.058-.772.186-.23.375-.459.565-.686.17-.204.212-.428.16-.691-.183-.932-.362-1.865-.524-2.801C.17 7.616.329 6.66.712 5.735 1.482 3.87 2.565 2.19 3.776.59c.289-.382.671-.584 1.16-.49.61.118.974.732.79 1.34-.206.68-.432 1.355-.653 2.031-.016.05-.05.106-.094.132-.624.373-.925.96-1.03 1.645-.076.499-.085 1.008-.124 1.512l.073.003M7.591 7.367c0-.782.013-1.564-.004-2.346-.012-.539.14-.838.58-1.006.425-.163.934-.02 1.225.33.349.418.456.92.47 1.438.017.564-.012 1.128-.02 1.692-.002.113-.012.226-.002.338.017.185.175.324.357.324.192 0 .329-.111.335-.288.038-1.018.18-2.045-.132-3.046-.161-.516-.442-.958-.907-1.263-.054-.036-.106-.097-.127-.157-.222-.66-.446-1.322-.654-1.987-.194-.62.13-1.208.753-1.36.487-.12.884.071 1.168.456 1.266 1.718 2.405 3.51 3.174 5.517.352.919.393 1.857.234 2.808-.138.826-.305 1.647-.482 2.465-.073.34-.03.622.207.88.172.186.329.387.488.585.23.287.201.577-.082.812-.803.666-1.607 1.332-2.411 1.996-.33.271-.615.247-.87-.089-.795-1.041-1.66-2.034-2.276-3.202-.38-.718-.754-1.448-.865-2.26-.093-.674-.092-1.362-.127-2.044-.01-.197-.002-.395-.002-.593h-.03z" transform="translate(9 7)"/>
        </g>
    </g>
</svg>
