<svg xmlns="http://www.w3.org/2000/svg" width="25" height="25" viewBox="0 0 25 25">
    <g fill="#171B50" fill-rule="evenodd">
        <path d="M5.115 8.994c0 .471-.006.943.003 1.415.005.275.2.483.432.49.246.006.465-.204.463-.49-.004-.62-.066-1.241-.036-1.859.03-.633.079-1.278.232-1.89.238-.948 1.093-1.435 1.942-1.197.54.151.818.548.809 1.108-.027 1.646-.042 3.293-.065 4.939-.016 1.164-.152 2.304-.625 3.386-.555 1.27-1.233 2.465-2.079 3.563-.536.696-1.077 1.389-1.622 2.078-.272.344-.685.398-1.026.117-1.1-.907-2.192-1.821-3.28-2.74-.325-.275-.346-.682-.078-1.015.244-.302.492-.601.741-.9.223-.268.279-.562.21-.907-.24-1.223-.475-2.448-.687-3.676C.223 10.113.432 8.86.934 7.644 1.945 5.196 3.366 2.993 4.956.89c.379-.5.881-.766 1.523-.642.8.154 1.278.96 1.036 1.758-.27.893-.567 1.779-.857 2.666-.02.065-.066.14-.123.173-.82.49-1.214 1.26-1.352 2.16-.1.654-.111 1.322-.162 1.984l.094.004M9.963 9.787c0-1.027.017-2.054-.006-3.08-.015-.707.185-1.1.763-1.32.557-.214 1.225-.027 1.607.432.457.55.599 1.207.618 1.889.02.739-.016 1.48-.028 2.22-.002.148-.015.297-.002.444.023.242.23.425.469.425.252 0 .431-.146.44-.378.049-1.337.234-2.685-.175-3.999-.21-.677-.579-1.257-1.19-1.657-.07-.047-.14-.127-.166-.205-.292-.868-.585-1.735-.859-2.609-.254-.813.172-1.586.989-1.786.639-.156 1.16.095 1.532.6 1.662 2.255 3.158 4.606 4.167 7.24.462 1.207.515 2.438.307 3.686-.18 1.084-.4 2.162-.633 3.236-.096.445-.04.816.272 1.154.226.245.431.509.64.768.303.377.265.758-.107 1.067-1.054.874-2.109 1.747-3.165 2.618-.432.357-.808.324-1.143-.115-1.042-1.368-2.177-2.67-2.986-4.203-.498-.943-.99-1.902-1.135-2.966-.122-.886-.121-1.788-.167-2.684-.014-.258-.002-.518-.002-.777h-.04z" transform="translate(3 2)"/>
    </g>
</svg>
